<mxfile host="app.diagrams.net" agent="Mozilla/5.0 (X11; Ubuntu; Linux x86_64; rv:136.0) Gecko/20100101 Firefox/136.0" version="26.1.1">
  <diagram name="Page-1" id="2YBvvXClWsGukQMizWep">
    <mxGraphModel dx="1313" dy="1831" grid="1" gridSize="10" guides="1" tooltips="1" connect="1" arrows="1" fold="1" page="1" pageScale="1" pageWidth="850" pageHeight="1100" math="0" shadow="0">
      <root>
        <mxCell id="0" />
        <mxCell id="1" parent="0" />
        <mxCell id="2nSQfjUa8Pg7l9VRnIv2-44" value="" style="edgeStyle=orthogonalEdgeStyle;rounded=0;orthogonalLoop=1;jettySize=auto;html=1;" edge="1" parent="1" source="2nSQfjUa8Pg7l9VRnIv2-23" target="2nSQfjUa8Pg7l9VRnIv2-43">
          <mxGeometry relative="1" as="geometry">
            <Array as="points">
              <mxPoint x="240" y="130" />
              <mxPoint x="240" y="130" />
            </Array>
          </mxGeometry>
        </mxCell>
        <mxCell id="2nSQfjUa8Pg7l9VRnIv2-23" value="Admin" style="shape=actor;whiteSpace=wrap;html=1;" vertex="1" parent="1">
          <mxGeometry x="200" width="70" height="80" as="geometry" />
        </mxCell>
        <mxCell id="2nSQfjUa8Pg7l9VRnIv2-49" value="" style="edgeStyle=orthogonalEdgeStyle;rounded=0;orthogonalLoop=1;jettySize=auto;html=1;" edge="1" parent="1" source="2nSQfjUa8Pg7l9VRnIv2-24" target="2nSQfjUa8Pg7l9VRnIv2-47">
          <mxGeometry relative="1" as="geometry">
            <Array as="points">
              <mxPoint x="370" y="100" />
              <mxPoint x="370" y="100" />
            </Array>
          </mxGeometry>
        </mxCell>
        <mxCell id="2nSQfjUa8Pg7l9VRnIv2-24" value="Uni Rep" style="shape=actor;whiteSpace=wrap;html=1;" vertex="1" parent="1">
          <mxGeometry x="335" width="75" height="80" as="geometry" />
        </mxCell>
        <mxCell id="2nSQfjUa8Pg7l9VRnIv2-48" value="" style="edgeStyle=orthogonalEdgeStyle;rounded=0;orthogonalLoop=1;jettySize=auto;html=1;entryX=0;entryY=0.5;entryDx=0;entryDy=0;" edge="1" parent="1" source="2nSQfjUa8Pg7l9VRnIv2-43" target="2nSQfjUa8Pg7l9VRnIv2-47">
          <mxGeometry relative="1" as="geometry">
            <mxPoint x="330" y="165" as="targetPoint" />
          </mxGeometry>
        </mxCell>
        <mxCell id="2nSQfjUa8Pg7l9VRnIv2-60" style="edgeStyle=orthogonalEdgeStyle;rounded=0;orthogonalLoop=1;jettySize=auto;html=1;entryX=0.5;entryY=0;entryDx=0;entryDy=0;" edge="1" parent="1" source="2nSQfjUa8Pg7l9VRnIv2-43" target="2nSQfjUa8Pg7l9VRnIv2-61">
          <mxGeometry relative="1" as="geometry">
            <mxPoint x="80" y="280" as="targetPoint" />
            <Array as="points">
              <mxPoint x="50" y="165" />
            </Array>
          </mxGeometry>
        </mxCell>
        <mxCell id="2nSQfjUa8Pg7l9VRnIv2-43" value="Adds University" style="shape=process;whiteSpace=wrap;html=1;backgroundOutline=1;" vertex="1" parent="1">
          <mxGeometry x="180" y="130" width="100" height="50" as="geometry" />
        </mxCell>
        <mxCell id="2nSQfjUa8Pg7l9VRnIv2-47" value="Uni Rep&amp;nbsp; Onboards" style="shape=process;whiteSpace=wrap;html=1;backgroundOutline=1;" vertex="1" parent="1">
          <mxGeometry x="335" y="130" width="85" height="50" as="geometry" />
        </mxCell>
        <mxCell id="2nSQfjUa8Pg7l9VRnIv2-59" value="" style="edgeStyle=orthogonalEdgeStyle;rounded=0;orthogonalLoop=1;jettySize=auto;html=1;entryX=0.5;entryY=0;entryDx=0;entryDy=0;" edge="1" parent="1" source="2nSQfjUa8Pg7l9VRnIv2-47" target="2nSQfjUa8Pg7l9VRnIv2-89">
          <mxGeometry relative="1" as="geometry">
            <mxPoint x="378" y="190" as="sourcePoint" />
            <mxPoint x="377.5" y="230" as="targetPoint" />
          </mxGeometry>
        </mxCell>
        <mxCell id="2nSQfjUa8Pg7l9VRnIv2-61" value="uni" style="shape=datastore;whiteSpace=wrap;html=1;" vertex="1" parent="1">
          <mxGeometry x="20" y="230" width="60" height="60" as="geometry" />
        </mxCell>
        <mxCell id="2nSQfjUa8Pg7l9VRnIv2-67" style="edgeStyle=orthogonalEdgeStyle;rounded=0;orthogonalLoop=1;jettySize=auto;html=1;entryX=0.5;entryY=1;entryDx=0;entryDy=0;exitX=0;exitY=0.25;exitDx=0;exitDy=0;" edge="1" parent="1" source="2nSQfjUa8Pg7l9VRnIv2-87" target="2nSQfjUa8Pg7l9VRnIv2-61">
          <mxGeometry relative="1" as="geometry">
            <mxPoint x="117.5" y="390" as="sourcePoint" />
          </mxGeometry>
        </mxCell>
        <mxCell id="2nSQfjUa8Pg7l9VRnIv2-88" value="" style="edgeStyle=orthogonalEdgeStyle;rounded=0;orthogonalLoop=1;jettySize=auto;html=1;" edge="1" parent="1" source="2nSQfjUa8Pg7l9VRnIv2-68" target="2nSQfjUa8Pg7l9VRnIv2-87">
          <mxGeometry relative="1" as="geometry">
            <Array as="points">
              <mxPoint x="240" y="400" />
              <mxPoint x="240" y="400" />
            </Array>
          </mxGeometry>
        </mxCell>
        <mxCell id="2nSQfjUa8Pg7l9VRnIv2-68" value="" style="rounded=0;whiteSpace=wrap;html=1;" vertex="1" parent="1">
          <mxGeometry x="250" y="340" width="270" height="110" as="geometry" />
        </mxCell>
        <mxCell id="2nSQfjUa8Pg7l9VRnIv2-74" value="Creates a &lt;b&gt;Customer&lt;/b&gt; Account for University" style="shape=process;whiteSpace=wrap;html=1;backgroundOutline=1;" vertex="1" parent="1">
          <mxGeometry x="260" y="370" width="120" height="60" as="geometry" />
        </mxCell>
        <mxCell id="2nSQfjUa8Pg7l9VRnIv2-75" value="Creates a &lt;b&gt;EUR&lt;/b&gt; account for University" style="shape=process;whiteSpace=wrap;html=1;backgroundOutline=1;" vertex="1" parent="1">
          <mxGeometry x="390" y="370" width="120" height="60" as="geometry" />
        </mxCell>
        <mxCell id="2nSQfjUa8Pg7l9VRnIv2-80" value="" style="edgeStyle=orthogonalEdgeStyle;rounded=0;orthogonalLoop=1;jettySize=auto;html=1;" edge="1" parent="1" source="2nSQfjUa8Pg7l9VRnIv2-78" target="2nSQfjUa8Pg7l9VRnIv2-23">
          <mxGeometry relative="1" as="geometry">
            <Array as="points">
              <mxPoint x="200" y="50" />
              <mxPoint x="200" y="50" />
            </Array>
          </mxGeometry>
        </mxCell>
        <mxCell id="2nSQfjUa8Pg7l9VRnIv2-78" value="START" style="whiteSpace=wrap;html=1;" vertex="1" parent="1">
          <mxGeometry x="30" y="30" width="120" height="60" as="geometry" />
        </mxCell>
        <mxCell id="2nSQfjUa8Pg7l9VRnIv2-87" value="Update uni record with &lt;b&gt;customer_id&lt;/b&gt; and &lt;b&gt;account_id&lt;/b&gt;" style="shape=process;whiteSpace=wrap;html=1;backgroundOutline=1;rounded=0;" vertex="1" parent="1">
          <mxGeometry x="100" y="370" width="120" height="60" as="geometry" />
        </mxCell>
        <mxCell id="2nSQfjUa8Pg7l9VRnIv2-89" value="Edukate System" style="ellipse;whiteSpace=wrap;html=1;align=center;newEdgeStyle={&quot;edgeStyle&quot;:&quot;entityRelationEdgeStyle&quot;,&quot;startArrow&quot;:&quot;none&quot;,&quot;endArrow&quot;:&quot;none&quot;,&quot;segment&quot;:10,&quot;curved&quot;:1,&quot;sourcePerimeterSpacing&quot;:0,&quot;targetPerimeterSpacing&quot;:0};treeFolding=1;treeMoving=1;" vertex="1" parent="1">
          <mxGeometry x="327.5" y="240" width="100" height="40" as="geometry" />
        </mxCell>
        <mxCell id="2nSQfjUa8Pg7l9VRnIv2-92" style="edgeStyle=orthogonalEdgeStyle;rounded=0;orthogonalLoop=1;jettySize=auto;html=1;entryX=0.5;entryY=0;entryDx=0;entryDy=0;" edge="1" parent="1" source="2nSQfjUa8Pg7l9VRnIv2-47" target="2nSQfjUa8Pg7l9VRnIv2-95">
          <mxGeometry relative="1" as="geometry">
            <mxPoint x="590" y="215" as="targetPoint" />
          </mxGeometry>
        </mxCell>
        <mxCell id="2nSQfjUa8Pg7l9VRnIv2-93" value="save" style="text;html=1;align=center;verticalAlign=middle;resizable=0;points=[];autosize=1;strokeColor=none;fillColor=none;" vertex="1" parent="1">
          <mxGeometry x="96" y="138" width="50" height="30" as="geometry" />
        </mxCell>
        <mxCell id="2nSQfjUa8Pg7l9VRnIv2-94" value="save" style="text;html=1;align=center;verticalAlign=middle;resizable=0;points=[];autosize=1;strokeColor=none;fillColor=none;" vertex="1" parent="1">
          <mxGeometry x="490" y="130" width="50" height="30" as="geometry" />
        </mxCell>
        <mxCell id="2nSQfjUa8Pg7l9VRnIv2-95" value="uni_rep" style="shape=datastore;whiteSpace=wrap;html=1;" vertex="1" parent="1">
          <mxGeometry x="570" y="180" width="60" height="60" as="geometry" />
        </mxCell>
        <mxCell id="2nSQfjUa8Pg7l9VRnIv2-96" value="&lt;b&gt;On Edukate&#39;s Payshiga Account&lt;/b&gt;" style="text;html=1;align=center;verticalAlign=middle;whiteSpace=wrap;rounded=0;" vertex="1" parent="1">
          <mxGeometry x="270" y="340" width="220" height="30" as="geometry" />
        </mxCell>
        <mxCell id="2nSQfjUa8Pg7l9VRnIv2-104" value="" style="endArrow=classic;html=1;rounded=0;exitX=0.5;exitY=1;exitDx=0;exitDy=0;" edge="1" parent="1" source="2nSQfjUa8Pg7l9VRnIv2-89">
          <mxGeometry width="50" height="50" relative="1" as="geometry">
            <mxPoint x="377" y="290" as="sourcePoint" />
            <mxPoint x="377" y="340" as="targetPoint" />
            <Array as="points">
              <mxPoint x="377" y="330" />
            </Array>
          </mxGeometry>
        </mxCell>
        <mxCell id="2nSQfjUa8Pg7l9VRnIv2-105" value="" style="whiteSpace=wrap;html=1;shape=mxgraph.basic.cloud_callout" vertex="1" parent="1">
          <mxGeometry x="460" y="-230" width="460" height="360" as="geometry" />
        </mxCell>
        <mxCell id="2nSQfjUa8Pg7l9VRnIv2-106" value="&lt;div&gt;&lt;b&gt;Thoughts&lt;/b&gt;&lt;/div&gt;&lt;div&gt;1. With this flow, unis don&#39;t have access to a payshiga dashboard.&lt;br&gt;So how do they topup their accounts?&amp;nbsp;&lt;/div&gt;&lt;div&gt;- (Edukate designs does not support a topup feature)&lt;/div&gt;&lt;div&gt;- (Payshiga seems to only support topup through virrtual cards)&lt;br&gt;&lt;br&gt;2. Is a payshiga account per university the expected flow?&lt;/div&gt;" style="text;html=1;align=center;verticalAlign=middle;whiteSpace=wrap;rounded=0;" vertex="1" parent="1">
          <mxGeometry x="510" y="-180" width="360" height="190" as="geometry" />
        </mxCell>
      </root>
    </mxGraphModel>
  </diagram>
</mxfile>
